<svg width="26" height="26" viewBox="0 0 26 26" fill="none" xmlns="http://www.w3.org/2000/svg">
<path d="M23.6586 16.1939L23.6587 16.194C24.0102 17.2094 24.3544 18.2278 24.6983 19.2451C24.8051 19.561 24.9118 19.8769 25.0188 20.1925L25.0346 20.2393V20.2888V20.2901V20.2913V20.2926V20.2939V20.2952V20.2965V20.2978V20.2991V20.3004V20.3017V20.3029V20.3042V20.3055V20.3068V20.3081V20.3094V20.3107V20.312V20.3132V20.3145V20.3158V20.3171V20.3184V20.3197V20.321V20.3223V20.3236V20.3248V20.3261V20.3274V20.3287V20.33V20.3313V20.3326V20.3339V20.3351V20.3364V20.3377V20.339V20.3403V20.3416V20.3429V20.3442V20.3454V20.3467V20.348V20.3493V20.3506V20.3519V20.3532V20.3545V20.3558V20.357V20.3583V20.3596V20.3609V20.3622V20.3635V20.3648V20.3661V20.3673V20.3686V20.3699V20.3712V20.3725V20.3738V20.3751V20.3764V20.3776V20.3789V20.3802V20.3815V20.3828V20.3841V20.3854V20.3867V20.3879V20.3892V20.3905V20.3918V20.3931V20.3944V20.3957V20.397V20.3982V20.3995V20.4008V20.4021V20.4034V20.4047V20.406V20.4073V20.4085V20.4098V20.4111V20.4124V20.4137V20.415V20.4163V20.4176V20.4188V20.4201V20.4214V20.4227V20.424V20.4253V20.4266V20.4279V20.4291V20.4304V20.4317V20.433V20.4343V20.4356V20.4369V20.4382V20.4394V20.4407V20.442V20.4433V20.4446V20.4459V20.4472V20.4485V20.4497V20.451V20.4523V20.4536V20.4549V20.4562V20.4575V20.4588V20.46V20.4613V20.4626V20.4639V20.4652V20.4665V20.4678V20.469V20.4703V20.4716V20.4729V20.4742V20.4755V20.4768V20.4781V20.4793V20.4806V20.4819V20.4832V20.4845V20.4858V20.4871V20.4884V20.4896V20.4909V20.4922V20.4935V20.4948V20.4961V20.4974V20.4987V20.4999V20.5012V20.5025V20.5038V20.5051V20.5064V20.5077V20.5089V20.5102V20.5115V20.5128V20.5141V20.5154V20.5167V20.518V20.5192V20.5205V20.5218V20.5231V20.5244V20.5257V20.527V20.5283V20.5295V20.5308V20.5321V20.5334V20.5347V20.536V20.5373V20.5385V20.5398V20.5411V20.5424V20.5437V20.545V20.5463V20.5476V20.5488V20.5501V20.5514V20.5527V20.554V20.5553V20.5566V20.5578V20.5591V20.5604V20.5617V20.563V20.5643V20.5656V20.5669V20.5681V20.5694V20.5707V20.572V20.5733V20.5746V20.5759V20.5772V20.5784V20.5797V20.581V20.5823V20.5836V20.5849V20.5862V20.5874V20.5887V20.59V20.5913V20.5926V20.5939V20.5952V20.5965V20.5977V20.599V20.6003V20.6016V20.6029V20.6042V20.6055V20.6067V20.608V20.6093V20.6106V20.6119V20.6132V20.6145V20.6158V20.617V20.6183V20.6196V20.6209V20.6222V20.6235V20.6248V20.6261V20.6273V20.6286V20.6299V20.6312V20.6325V20.6338V20.6351V20.6363V20.6376V20.6389V20.6402V20.6415V20.6428V20.6441V20.6454V20.6466V20.6479V20.6492V20.6505V20.6518V20.6531V20.6544V20.6556V20.6569V20.6582V20.6595V20.6608V20.6621V20.6634V20.6647V20.6659V20.6672V20.6685V20.6698V20.6711V20.6724V20.6737V20.6749V20.6762V20.6775V20.6788V20.6801V20.6814V20.6827V20.684V20.6852V20.6865V20.6878V20.6891V20.6904V20.6917V20.693V20.6943V20.6955V20.6968V20.6981V20.6994V20.7007V20.702V20.7033V20.7045V20.7058V20.7071V20.7084V20.7097V20.711V20.7123V20.7136V20.7148V20.7161V20.7174V20.7187V20.72V20.7213V20.7226V20.7239V20.7251V20.7264V20.7277V20.729V20.7303V20.7316V20.7329V20.7341V20.7354V20.7367V20.738V20.7393V20.7406V20.7419V20.7432V20.7444V20.7457V20.747V20.7483V20.7496V20.7509V20.7522V20.7535V20.7547V20.756V20.7573V20.7586V20.7599V20.7612V20.7625V20.7637V20.765V20.7663V20.7676V20.7689V20.7702V20.7715V20.7728V20.774V20.7753V20.7766V20.7779V20.7792V20.7805V20.7818V20.7831V20.7843V20.7856V20.7869V20.7882V20.7895V20.7908V20.7921V20.7934V20.7946V20.7959V20.7972V20.7985V20.7998V20.8011V20.8024V20.8037V20.8049V20.8062V20.8075V20.8088V20.8101V20.8114V20.8127V20.8139V20.8152V20.8165V20.8178V20.8191V20.8204V20.8217V20.823V20.8242V20.8255V20.8268V20.8281V20.8294V20.8307V20.832V20.8333V20.8345V20.8358V20.8371V20.8384V20.8397V20.841V20.8423V20.8436V20.8449V20.8461V20.8474V20.8487V20.85V20.8513V20.8526V20.8539V20.8552V20.8564V20.8577V20.859V20.8603V20.8616V20.8629V20.8642V20.8655V20.8667V20.868V20.8693V20.8706V20.8719V20.8732V20.8745V20.8758V20.877V20.8783V20.8796V20.8809V20.8822V20.8835V20.8848V20.8861V20.8873V20.8886V20.8899V20.8912V20.8925V20.8938V20.8951V20.8964V20.8976V20.8989V20.9002V20.9015V20.9028V20.9041V20.9054V20.9067V20.908V20.9092V20.9105V20.9118V20.9131V20.9144V20.9157V20.917V20.9183V20.9195V20.9208V20.9221V20.9234V20.9247V20.926V20.9273V20.9286V20.9299V20.9311V20.9324V20.9337V20.935V20.9363V20.9376V20.9389V20.9402V20.9414V20.9427V20.944V20.9453V20.9466V20.9479V20.998L25.0184 21.0453C24.874 21.4656 24.6523 21.8913 24.2166 22.1763C23.6574 22.5426 23.0604 22.5661 22.4662 22.3576L22.4661 22.3576C21.9364 22.1713 21.4045 21.986 20.8722 21.8006C20.1766 21.5582 19.4802 21.3156 18.787 21.0703L18.7866 21.0702C18.7357 21.0521 18.7034 21.0487 18.6796 21.0498C18.6557 21.0509 18.6237 21.0572 18.5742 21.0802C17.3931 21.6327 16.1497 21.9554 14.8432 22.0169L14.8429 22.0169C14.7713 22.0202 14.7284 22.0313 14.6974 22.0456C14.6682 22.0591 14.6332 22.083 14.5895 22.1368L14.5894 22.137C12.7908 24.3505 10.4562 25.3362 7.63936 25.0043C7.08798 24.9393 6.54358 24.7583 6.03743 24.59C5.91217 24.5483 5.78926 24.5074 5.66917 24.4693L5.66891 24.4692C5.49532 24.4139 5.39388 24.4091 5.26764 24.4548C4.45933 24.7478 3.64695 25.0341 2.82922 25.3053L2.82912 25.3053C1.87174 25.6224 0.878885 25.0876 0.700998 24.0824L0.700991 24.0823C0.642762 23.753 0.705306 23.3988 0.792214 23.1165C1.03249 22.333 1.30045 21.5587 1.57668 20.792L1.57695 20.7912C1.64248 20.6109 1.64033 20.4755 1.56718 20.2907L1.84613 20.1803L1.56718 20.2907C0.665549 18.0122 0.785347 15.7698 1.93268 13.6048L1.93274 13.6047C2.40479 12.7147 3.04155 11.9593 3.81719 11.33M23.6586 16.1939L4.00648 11.5627M23.6586 16.1939C23.618 16.0768 23.6226 15.9979 23.6755 15.8781M23.6586 16.1939L23.6755 15.8781M3.81719 11.33C3.81728 11.3299 3.81737 11.3298 3.81746 11.3298L4.00648 11.5627M3.81719 11.33C3.81704 11.3301 3.81688 11.3302 3.81673 11.3304L4.00648 11.5627M3.81719 11.33C3.87228 11.285 3.89227 11.2634 3.90259 11.2478C3.90757 11.2403 3.91525 11.228 3.91645 11.191L3.91646 11.1906C4.01087 8.40447 5.04994 6.02027 6.99865 4.06296M4.00648 11.5627C4.12272 11.4678 4.21048 11.38 4.21629 11.2007C4.30812 8.49055 5.31593 6.17831 7.21125 4.27462M6.99865 4.06296C6.99864 4.06297 6.99863 4.06297 6.99863 4.06298L7.21125 4.27462M6.99865 4.06296L7.21125 4.27462M6.99865 4.06296C8.67917 2.37469 10.716 1.40077 13.0608 1.11454L13.0608 1.11453C18.3407 0.470743 23.3063 4.10986 24.3858 9.40516L24.3858 9.40522C24.84 11.6358 24.5986 13.8005 23.6755 15.8781M7.21125 4.27462C8.84327 2.63507 10.8176 1.6906 13.0971 1.41232C18.2176 0.787984 23.0427 4.31884 24.0918 9.46509L23.6755 15.8781M14.8291 21.7173C14.6367 21.7261 14.492 21.7809 14.3566 21.9478C12.6205 24.0843 10.3858 25.0259 7.67447 24.7063C7.15671 24.6453 6.65 24.4771 6.14643 24.3098L6.14641 24.3098C6.01744 24.267 5.88867 24.2243 5.75997 24.1834C5.549 24.1162 5.37522 24.0967 5.1654 24.1728C4.35869 24.4652 3.54907 24.7505 2.7348 25.0206C1.93738 25.2847 1.13997 24.8413 0.996408 24.0301C0.949912 23.7672 0.998733 23.4653 1.07894 23.2047C1.31723 22.4277 1.58343 21.6583 1.85892 20.8937L14.8291 21.7173ZM14.8291 21.7173C16.0944 21.6577 17.2998 21.3453 18.4477 20.8082L14.8291 21.7173ZM2.96776 23.0724C2.98815 23.0121 3.00845 22.9521 3.02866 22.8923C3.19517 22.4001 3.35596 21.9248 3.51506 21.4493C3.54302 21.3658 3.56921 21.289 3.59328 21.2183C3.64229 21.0745 3.68254 20.9564 3.71114 20.8602C3.75521 20.7121 3.78436 20.5773 3.77525 20.4313C3.76632 20.288 3.72182 20.159 3.66868 20.0238C3.64517 19.9639 3.62152 19.9065 3.59549 19.8433C3.55461 19.7441 3.50787 19.6306 3.44668 19.4714C2.73201 17.6109 2.91767 15.8389 3.99977 14.1617C4.0512 14.0821 4.10491 14.0071 4.16126 13.9325C4.72376 15.9991 5.65731 17.695 6.97162 19.0125C8.29497 20.3389 9.99032 21.2676 12.0467 21.8112C11.771 22.0355 11.4713 22.2274 11.1505 22.3865L11.1503 22.3866L6.10231 22.7272L6.22969 22.4556C6.22969 22.4556 6.22968 22.4556 6.22968 22.4556C5.78524 22.2471 5.3625 22.2109 4.88676 22.3941C4.36232 22.596 3.83232 22.777 3.29636 22.96C3.18707 22.9973 3.07754 23.0347 2.96776 23.0724ZM2.96776 23.0724C2.92766 23.191 2.8872 23.3106 2.84634 23.4316C2.81903 23.441 2.79173 23.4505 2.76444 23.46M2.96776 23.0724L2.76444 23.46M2.76444 23.46C2.72071 23.4754 2.67608 23.4883 2.61756 23.5052L2.61745 23.5052C2.58188 23.5155 2.54118 23.5272 2.49243 23.5419L2.76444 23.46ZM22.8898 20.3097C22.8407 20.1633 22.7917 20.0171 22.7427 19.8708C22.3756 18.7748 22.0093 17.6815 21.6248 16.5944C21.4562 16.1181 21.4837 15.6947 21.7041 15.2413L21.7042 15.2411C22.5095 13.5868 22.7354 11.844 22.4092 10.0282C22.1205 8.42341 21.4228 7.02133 20.3228 5.8326C18.6669 4.04354 16.6255 3.15751 14.2089 3.12665C13.4612 3.1182 12.7277 3.23107 12.0054 3.43707L12.0053 3.4371C10.3878 3.89774 9.03752 4.78636 7.94177 6.08034L7.94174 6.08038C6.77562 7.45698 6.11376 9.05657 5.98187 10.8577L5.98187 10.8577C5.82309 13.0241 6.37795 14.9899 7.7115 16.6964C9.42466 18.8877 11.6713 19.9687 14.4215 19.967H14.4216C15.6615 19.9664 16.8476 19.6577 17.9609 19.0777L22.8898 20.3097ZM22.8898 20.3097C21.6355 19.8777 20.3826 19.4446 19.1344 18.9993C18.7278 18.8538 18.3474 18.8762 17.961 19.0776L22.8898 20.3097ZM18.6378 7.44786L18.6382 7.44794C18.9022 7.49938 19.1272 7.63345 19.2795 7.83709C19.4313 8.0401 19.4967 8.29309 19.4769 8.55861C19.4769 8.5587 19.4769 8.5588 19.4769 8.55889L19.1777 8.53653L18.6378 7.44786ZM18.6378 7.44786C18.4939 7.42002 18.35 7.41881 18.2365 7.41823L18.2351 7.41823M18.6378 7.44786L18.2351 7.41823M18.2351 7.41823C15.676 7.41705 13.1163 7.41705 10.5572 7.41705C10.5175 7.41705 10.4755 7.41666 10.4319 7.41626C10.3123 7.41516 10.1812 7.41396 10.055 7.42038M18.2351 7.41823L9.15327 7.94777M9.15327 7.94777L9.15344 7.94747C9.36089 7.58384 9.69986 7.43843 10.055 7.42038M9.15327 7.94777C8.755 8.64768 9.2506 9.48587 10.0573 9.48917L9.15327 7.94777ZM10.055 7.42038L10.0702 7.72L10.0549 7.42039C10.055 7.42039 10.055 7.42038 10.055 7.42038ZM10.1879 12.4541H10.1876C9.99363 12.4541 9.78713 12.429 9.59666 12.3393C9.39873 12.246 9.23745 12.0919 9.12641 11.8694M10.1879 12.4541L9.39483 11.7355M10.1879 12.4541C12.2923 12.4518 14.3966 12.452 16.5014 12.4522C17.1031 12.4522 17.7048 12.4523 18.3065 12.4523C18.3144 12.4523 18.3229 12.4523 18.3318 12.4524C18.3978 12.4527 18.4904 12.4531 18.5815 12.4397M10.1879 12.4541L18.5378 12.1429M9.12641 11.8694L9.39483 11.7355M9.12641 11.8694C9.12644 11.8695 9.12647 11.8696 9.12651 11.8696L9.39483 11.7355M9.12641 11.8694C8.77805 11.1724 9.27915 10.3932 10.0509 10.3784M9.39483 11.7355C9.14956 11.245 9.4948 10.689 10.0568 10.6784M10.0509 10.3784L10.0568 10.6784M10.0509 10.3784C10.051 10.3784 10.0511 10.3784 10.0512 10.3784L10.0568 10.6784M10.0509 10.3784C10.4306 10.3709 10.8123 10.3725 11.1898 10.3741C11.3466 10.3748 11.5026 10.3754 11.6575 10.3754H11.6625H11.6676H11.6727H11.6778H11.6828H11.6879H11.693H11.6981H11.7031H11.7082H11.7133H11.7184H11.7234H11.7285H11.7336H11.7387H11.7437H11.7488H11.7539H11.759H11.764H11.7691H11.7742H11.7793H11.7843H11.7894H11.7945H11.7995H11.8046H11.8097H11.8148H11.8198H11.8249H11.83H11.8351H11.8401H11.8452H11.8503H11.8554H11.8604H11.8655H11.8706H11.8757H11.8807H11.8858H11.8909H11.896H11.901H11.9061H11.9112H11.9163H11.9213H11.9264H11.9315H11.9366H11.9416H11.9467H11.9518H11.9569H11.9619H11.967H11.9721H11.9771H11.9822H11.9873H11.9924H11.9974H12.0025H12.0076H12.0127H12.0177H12.0228H12.0279H12.033H12.038H12.0431H12.0482H12.0533H12.0583H12.0634H12.0685H12.0736H12.0786H12.0837H12.0888H12.0939H12.0989H12.104H12.1091H12.1142H12.1192H12.1243H12.1294H12.1344H12.1395H12.1446H12.1497H12.1547H12.1598H12.1649H12.17H12.175H12.1801H12.1852H12.1903H12.1953H12.2004H12.2055H12.2106H12.2156H12.2207H12.2258H12.2309H12.2359H12.241H12.2461H12.2512H12.2562H12.2613H12.2664H12.2715H12.2765H12.2816H12.2867H12.2917H12.2968H12.3019H12.307H12.312H12.3171H12.3222H12.3273H12.3323H12.3374H12.3425H12.3476H12.3526H12.3577H12.3628H12.3679H12.3729H12.378H12.3831H12.3882H12.3932H12.3983H12.4034H12.4085H12.4135H12.4186H12.4237H12.4288H12.4338H12.4389H12.444H12.449H12.4541H12.4592H12.4643H12.4693H12.4744H12.4795H12.4846H12.4896H12.4947H12.4998H12.5049H12.5099H12.515H12.5201H12.5252H12.5302H12.5353H12.5404H12.5455H12.5505H12.5556H12.5607H12.5658H12.5708H12.5759H12.581H12.5861H12.5911H12.5962H12.6013H12.6063H12.6114H12.6165H12.6216H12.6266H12.6317H12.6368H12.6419H12.6469H12.652H12.6571H12.6622H12.6672H12.6723H12.6774H12.6825H12.6875H12.6926H12.6977H12.7028H12.7078H12.7129H12.718H12.7231H12.7281H12.7332H12.7383H12.7434H12.7484H12.7535H12.7586H12.7636H12.7687H12.7738H12.7789H12.7839H12.789H12.7941H12.7992H12.8042H12.8093H12.8144H12.8195H12.8245H12.8296H12.8347H12.8398H12.8448H12.8499H12.855H12.8601H12.8651H12.8702H12.8753H12.8804H12.8854H12.8905H12.8956H12.9007H12.9057H12.9108H12.9159H12.9209H12.926H12.9311H12.9362H12.9412H12.9463H12.9514H12.9565H12.9615H12.9666H12.9717H12.9768H12.9818H12.9869H12.992H12.9971H13.0021H13.0072H13.0123H13.0174H13.0224H13.0275H13.0326H13.0377H13.0427H13.0478H13.0529H13.058H13.063H13.0681H13.0732H13.0782H13.0833H13.0884H13.0935H13.0985H13.1036H13.1087H13.1138H13.1188H13.1239H13.129H13.1341H13.1391H13.1442H13.1493H13.1544H13.1594H13.1645H13.1696H13.1747H13.1797H13.1848H13.1899H13.195H13.2H13.2051H13.2102H13.2153H13.2203H13.2254H13.2305H13.2356H13.2406H13.2457H13.2508H13.2558H13.2609H13.266H13.2711H13.2761H13.2812H13.2863H13.2914H13.2964H13.3015H13.3066H13.3117H13.3167H13.3218H13.3269H13.332H13.337H13.3421H13.3472H13.3523H13.3573H13.3624H13.3675H13.3726H13.3776H13.3827H13.3878H13.3929H13.3979H13.403H13.4081H13.4131H13.4182H13.4233H13.4284H13.4334H13.4385H13.4436H13.4487H13.4537H13.4588H13.4639H13.469H13.474H13.4791H13.4842H13.4893H13.4943H13.4994H13.5045H13.5096H13.5146H13.5197H13.5248H13.5299H13.5349H13.54H13.5451H13.5502H13.5552H13.5603H13.5654H13.5704H13.5755H13.5806H13.5857H13.5907H13.5958H13.6009H13.606H13.611H13.6161H13.6212H13.6263H13.6313H13.6364H13.6415H13.6466H13.6516H13.6567H13.6618H13.6669H13.6719H13.677H13.6821H13.6872H13.6922H13.6973H13.7024H13.7075H13.7125H13.7176H13.7227H13.7277H13.7328H13.7379H13.743H13.748H13.7531H13.7582H13.7633H13.7683H13.7734H13.7785H13.7836H13.7886H13.7937H13.7988H13.8039H13.8089H13.814H13.8191H13.8242H13.8292H13.8343H13.8394H13.8445H13.8495H13.8546H13.8597H13.8648H13.8698H13.8749H13.88H13.885H13.8901H13.8952H13.9003H13.9053H13.9104H13.9155H13.9206H13.9256H13.9307H13.9358H13.9409H13.9459H13.951H13.9561H13.9612H13.9662H13.9713H13.9764H13.9815H13.9865H13.9916H13.9967H14.0018H14.0068H14.0119H14.017H14.0221H14.0271H14.0322H14.0373H14.0423H14.0474H14.0525H14.0576H14.0626H14.0677H14.0728H14.0779H14.0829H14.088H14.0931H14.0982H14.1032H14.1083H14.1134H14.1185H14.1235H14.1286H14.1337H14.1388H14.1438H14.1489H14.154H14.1591H14.1641H14.1692H14.1743H14.1794H14.1844H14.1895H14.1946H14.1996H14.2047H14.2098H14.2149H14.2199H14.225H14.2301H14.2352H14.2402H14.2453H14.2504H14.2555C14.6505 10.3754 15.0458 10.3752 15.4411 10.3751C16.4299 10.3746 17.4194 10.3741 18.4084 10.3766C18.7146 10.3774 18.9922 10.4817 19.1917 10.6831C19.3918 10.8852 19.4902 11.1622 19.4787 11.4628M10.0568 10.6784L18.5378 12.1429M19.4787 11.4628L19.1789 11.4513L19.4787 11.4625C19.4787 11.4626 19.4787 11.4627 19.4787 11.4628ZM19.4787 11.4628C19.4594 11.9724 19.086 12.3656 18.5815 12.4397M18.5815 12.4397L18.5378 12.1429M18.5815 12.4397C18.5814 12.4397 18.5814 12.4397 18.5814 12.4397L18.5378 12.1429M12.3362 13.3333H12.6362C12.89 13.3333 13.1443 13.3327 13.3991 13.3321C14.0031 13.3308 14.6094 13.3294 15.2146 13.3356C15.2146 13.3356 15.2146 13.3356 15.2146 13.3356L15.2115 13.6356L12.3362 13.3333ZM12.3362 13.3333V13.3348M12.3362 13.3333V13.3348M12.3362 13.3348C12.1874 13.3347 12.0385 13.3344 11.8894 13.3341C11.2646 13.3329 10.6377 13.3317 10.0114 13.338C10.0114 13.338 10.0114 13.338 10.0114 13.338L12.3362 13.3348ZM10.209 15.4007L10.2084 15.4007C10.0589 15.4 9.87965 15.3883 9.7064 15.3326L10.209 15.4007ZM10.209 15.4007C11.8183 15.4042 13.4274 15.4036 15.0363 15.4019L10.209 15.4007Z" fill="#2F80ED" stroke="#2F80ED" stroke-width="0.6"/>
</svg>
