<svg width="30" height="30" viewBox="0 0 30 30" fill="none" xmlns="http://www.w3.org/2000/svg">
<g clip-path="url(#clip0_1_373)">
<path d="M1.5386 16.6808L1.91782 15.1375C2.12502 14.2918 2.62535 13.5424 3.32546 13.0292C4.02556 12.5159 4.87761 12.2738 5.72261 12.3482L8.506 12.5931C9.23275 12.6572 9.91465 12.9518 10.456 13.4358C10.9974 13.9198 11.3711 14.5688 11.5247 15.2918L12.0711 17.8632C12.087 17.9384 12.1291 18.0044 12.1896 18.0494C12.595 18.3499 13.6161 18.5333 15.1971 18.5098C16.346 18.4922 17.2138 18.3756 17.7764 18.1764C18.1697 18.0381 18.307 17.9165 18.3268 17.8418L18.9685 15.1772C19.1438 14.4496 19.5369 13.7891 20.0927 13.2884C20.6485 12.7877 21.3391 12.4718 22.0677 12.3851L24.8474 12.0557C25.6927 11.9555 26.5357 12.1699 27.2199 12.6591C27.9042 13.1482 28.3831 13.879 28.5679 14.7156L28.9071 16.2493C29.0866 17.063 29.0545 17.9166 28.8138 18.7268C28.5731 19.5371 28.1322 20.2765 27.5339 20.8729C24.8922 23.5064 20.7365 24.8353 15.1009 24.9217C9.45783 25.0084 5.33678 23.8024 2.7726 21.2408C2.19599 20.6645 1.77955 19.9422 1.56341 19.1435C1.34727 18.3448 1.33873 17.4967 1.5386 16.6808ZM3.39311 17.0977C3.27311 17.587 3.27806 18.0957 3.40749 18.5748C3.53691 19.0539 3.78645 19.4872 4.13207 19.8331C6.28855 21.9872 9.94199 23.0561 15.1301 22.9771C20.3108 22.8983 23.9947 21.7198 26.219 19.5037C26.5776 19.1458 26.8418 18.7023 26.9859 18.2163C27.13 17.7303 27.1492 17.2185 27.0415 16.7305L26.7029 15.1957C26.6189 14.8153 26.4012 14.483 26.0901 14.2606C25.7789 14.0383 25.3956 13.9408 25.0113 13.9865L22.2334 14.3155C21.9019 14.3547 21.5877 14.4983 21.3349 14.7261C21.082 14.9539 20.9032 15.2543 20.8236 15.5854L20.1808 18.2569C19.7964 19.8017 18.073 20.4103 15.1679 20.4545C13.2113 20.4846 11.8509 20.2397 11.0332 19.6332C10.609 19.3173 10.3153 18.8563 10.2026 18.3292L9.65619 15.7578C9.58646 15.4291 9.41663 15.134 9.17054 14.9139C8.92444 14.6938 8.61444 14.5598 8.28404 14.5307L5.50065 14.2857C5.1168 14.2521 4.72978 14.362 4.41172 14.5951C4.09366 14.8282 3.86626 15.1685 3.7719 15.5526L3.39311 17.0977Z" fill="#8D8E96"/>
<path d="M14.965 14.3804C14.965 14.3804 19.6778 11.3918 20.2339 8.98065C20.79 6.56946 19.2387 4.17582 17.365 3.48569C15.4912 2.79556 13.6217 2.67474 11.4708 4.70389C9.31997 6.73303 10.1553 9.1595 10.5362 9.89742C10.917 10.6353 12.5791 12.8177 14.965 14.3804Z" fill="#8D8E96"/>
<path d="M15.352 10.0183C15.2979 10.0557 15.246 10.0908 15.1971 10.1233C14.4112 9.5571 13.8641 9.04042 13.5318 8.55198C13.3263 8.25013 13.2042 7.95801 13.1688 7.68379C13.1322 7.39976 13.1848 7.11724 13.3299 6.81998C13.5288 6.41224 13.791 6.09386 14.1091 5.87368C14.74 5.43697 15.4066 5.5052 15.4346 5.50821L15.4978 5.51526L15.5615 5.513C15.6097 5.51116 15.7549 5.52731 15.9595 5.60098C16.1161 5.65736 16.3541 5.76434 16.5982 5.9532C16.8222 6.12655 17.0021 6.33102 17.1326 6.56068C17.2828 6.82528 17.3676 7.12656 17.3845 7.45608C17.409 7.93291 17.0609 8.44402 16.7647 8.78863C16.3225 9.30264 15.7525 9.74106 15.352 10.0183ZM15.8335 10.7139C16.763 10.0705 18.3127 8.784 18.2415 7.39615C18.1402 5.41961 16.2877 4.6344 15.5464 4.66171C15.2294 4.62656 14.403 4.64127 13.6274 5.17807C13.2337 5.4506 12.8532 5.85755 12.5587 6.46102C11.644 8.33575 13.2979 9.89872 15.1564 11.1443C15.1564 11.1441 15.4392 10.9869 15.8335 10.7139Z" fill="white"/>
<path d="M15.8405 11.4568C15.6359 11.5985 15.3713 11.6815 15.0544 11.7037C14.858 11.7173 14.5381 11.6083 14.2664 11.3338C14.1226 11.1884 13.8865 10.8843 13.9221 10.4808C13.9386 10.2931 14.0976 10.0235 14.3582 9.74108C14.6262 9.4507 14.9506 9.19628 15.1982 9.02004C15.4019 9.17448 15.6437 9.37571 15.8577 9.60452C16.0583 9.81886 16.2023 10.0218 16.2858 10.2078C16.3574 10.3673 16.3793 10.5015 16.3526 10.6179C16.2638 11.0055 16.0963 11.2798 15.8405 11.4568ZM16.322 12.1525C16.7288 11.8709 17.0427 11.4306 17.1893 10.7916C17.506 9.4116 15.4233 8.12455 15.2313 7.98972C15.2313 7.98972 15.0501 8.09306 14.7927 8.27128C14.1832 8.69316 13.1456 9.53512 13.0671 10.4229C12.9593 11.6434 14.1399 12.6203 15.0977 12.5535C15.5436 12.5223 15.9681 12.3975 16.322 12.1525Z" fill="white"/>
<path d="M15.4321 13.6224C15.2281 13.7636 15.0714 13.8673 14.9847 13.924C13.7842 13.1255 12.8401 12.2018 12.2552 11.5617C11.5588 10.7998 11.0627 10.1014 10.8801 9.74738C10.7725 9.53885 10.4222 8.78185 10.4351 7.79574C10.4414 7.30825 10.5373 6.83857 10.72 6.39957C10.9377 5.87663 11.2817 5.39093 11.7426 4.95608C12.0295 4.68527 12.3203 4.44746 12.6067 4.24925C13.3768 3.71617 14.1482 3.4395 14.965 3.40356C15.6439 3.37361 16.3608 3.50724 17.2209 3.82403C18.0833 4.14172 18.8731 4.85058 19.3878 5.76896C19.9405 6.75527 20.1129 7.87041 19.8734 8.90903C19.7806 9.31149 19.5497 9.76392 19.1875 10.2539C18.8751 10.6763 18.462 11.1307 17.9597 11.604C17.0235 12.4859 15.9742 13.2472 15.4321 13.6224ZM15.5097 13.7346C16.7136 12.9013 19.5903 10.7485 20.008 8.93712C20.5386 6.6369 19.0588 4.35331 17.2711 3.69502C15.744 3.13255 14.2198 2.96655 12.5289 4.13693C12.2404 4.33665 11.9473 4.57505 11.6482 4.85724C9.59637 6.79313 10.3932 9.10797 10.7565 9.81181C11.1199 10.5158 12.7055 12.5977 14.9816 14.0884C14.9816 14.0884 15.1848 13.9596 15.5097 13.7346Z" fill="white"/>
</g>
<defs>
<clipPath id="clip0_1_373">
<rect width="29.2382" height="29.2382" fill="white" transform="translate(0.105743 0.128571)"/>
</clipPath>
</defs>
</svg>
